<svg xmlns="http://www.w3.org/2000/svg" version="1.1" xmlns:xlink="http://www.w3.org/1999/xlink" xmlns:svgjs="http://svgjs.dev/svgjs" viewBox="0 0 800 800" opacity="1"><defs><linearGradient gradientTransform="rotate(270)" x1="50%" y1="0%" x2="50%" y2="100%" id="sssquiggly-grad"><stop stop-color="hsla(206, 50%, 22%, 0.14)" stop-opacity="1" offset="0%"></stop><stop stop-color="#1c3c5407" stop-opacity="1" offset="100%"></stop></linearGradient></defs><g stroke-width="1" stroke="url(#sssquiggly-grad)" fill="none" stroke-linecap="round" transform="matrix(1,0,0,1,-5,349.1291809082031)"><path d="M10,10C63.47222222222222,67.08333333333333,157.6388888888889,363.375,266.6666666666667,284C375.69444444444446,204.625,422.2222222222223,-385.375,533.3333333333334,-371C644.4444444444445,-356.625,744.4444444444445,202.16666666666666,800,353"></path><path d="M10,10C63.47222222222222,67.08333333333333,157.6388888888889,363.375,266.6666666666667,284C375.69444444444446,204.625,422.2222222222223,-385.375,533.3333333333334,-371C644.4444444444445,-356.625,744.4444444444445,202.16666666666666,800,353" transform="matrix(1,0,0,1,0,120)"></path><path d="M10,10C63.47222222222222,67.08333333333333,157.6388888888889,363.375,266.6666666666667,284C375.69444444444446,204.625,422.2222222222223,-385.375,533.3333333333334,-371C644.4444444444445,-356.625,744.4444444444445,202.16666666666666,800,353" transform="matrix(1,0,0,1,0,110)"></path><path d="M10,10C63.47222222222222,67.08333333333333,157.6388888888889,363.375,266.6666666666667,284C375.69444444444446,204.625,422.2222222222223,-385.375,533.3333333333334,-371C644.4444444444445,-356.625,744.4444444444445,202.16666666666666,800,353" transform="matrix(1,0,0,1,0,100)"></path><path d="M10,10C63.47222222222222,67.08333333333333,157.6388888888889,363.375,266.6666666666667,284C375.69444444444446,204.625,422.2222222222223,-385.375,533.3333333333334,-371C644.4444444444445,-356.625,744.4444444444445,202.16666666666666,800,353" transform="matrix(1,0,0,1,0,90)"></path><path d="M10,10C63.47222222222222,67.08333333333333,157.6388888888889,363.375,266.6666666666667,284C375.69444444444446,204.625,422.2222222222223,-385.375,533.3333333333334,-371C644.4444444444445,-356.625,744.4444444444445,202.16666666666666,800,353" transform="matrix(1,0,0,1,0,80)"></path><path d="M10,10C63.47222222222222,67.08333333333333,157.6388888888889,363.375,266.6666666666667,284C375.69444444444446,204.625,422.2222222222223,-385.375,533.3333333333334,-371C644.4444444444445,-356.625,744.4444444444445,202.16666666666666,800,353" transform="matrix(1,0,0,1,0,70)"></path><path d="M10,10C63.47222222222222,67.08333333333333,157.6388888888889,363.375,266.6666666666667,284C375.69444444444446,204.625,422.2222222222223,-385.375,533.3333333333334,-371C644.4444444444445,-356.625,744.4444444444445,202.16666666666666,800,353" transform="matrix(1,0,0,1,0,60)"></path><path d="M10,10C63.47222222222222,67.08333333333333,157.6388888888889,363.375,266.6666666666667,284C375.69444444444446,204.625,422.2222222222223,-385.375,533.3333333333334,-371C644.4444444444445,-356.625,744.4444444444445,202.16666666666666,800,353" transform="matrix(1,0,0,1,0,50)"></path><path d="M10,10C63.47222222222222,67.08333333333333,157.6388888888889,363.375,266.6666666666667,284C375.69444444444446,204.625,422.2222222222223,-385.375,533.3333333333334,-371C644.4444444444445,-356.625,744.4444444444445,202.16666666666666,800,353" transform="matrix(1,0,0,1,0,40)"></path><path d="M10,10C63.47222222222222,67.08333333333333,157.6388888888889,363.375,266.6666666666667,284C375.69444444444446,204.625,422.2222222222223,-385.375,533.3333333333334,-371C644.4444444444445,-356.625,744.4444444444445,202.16666666666666,800,353" transform="matrix(1,0,0,1,0,30)"></path><path d="M10,10C63.47222222222222,67.08333333333333,157.6388888888889,363.375,266.6666666666667,284C375.69444444444446,204.625,422.2222222222223,-385.375,533.3333333333334,-371C644.4444444444445,-356.625,744.4444444444445,202.16666666666666,800,353" transform="matrix(1,0,0,1,0,20)"></path><path d="M10,10C63.47222222222222,67.08333333333333,157.6388888888889,363.375,266.6666666666667,284C375.69444444444446,204.625,422.2222222222223,-385.375,533.3333333333334,-371C644.4444444444445,-356.625,744.4444444444445,202.16666666666666,800,353" transform="matrix(1,0,0,1,0,10)"></path></g></svg>