<svg xmlns="http://www.w3.org/2000/svg" version="1.1" xmlns:xlink="http://www.w3.org/1999/xlink" xmlns:svgjs="http://svgjs.dev/svgjs" viewBox="0 0 800 800" opacity="1"><defs><linearGradient gradientTransform="rotate(270)" x1="50%" y1="0%" x2="50%" y2="100%" id="sssquiggly-grad"><stop stop-color="hsla(206, 50%, 22%, 0.14)" stop-opacity="1" offset="0%"></stop><stop stop-color="#1c3c5407" stop-opacity="1" offset="100%"></stop></linearGradient></defs><g stroke-width="1" stroke="url(#sssquiggly-grad)" fill="none" stroke-linecap="round" transform="matrix(1,0,0,1,-5,382.1134338378906)"><path d="M10,10C91.25,23.333333333333332,235.41666666666669,136.70833333333331,400,74C564.5833333333333,11.291666666666671,716.6666666666666,-214.95833333333331,800,-291"></path><path d="M10,10C91.25,23.333333333333332,235.41666666666669,136.70833333333331,400,74C564.5833333333333,11.291666666666671,716.6666666666666,-214.95833333333331,800,-291" transform="matrix(1,0,0,1,0,234)"></path><path d="M10,10C91.25,23.333333333333332,235.41666666666669,136.70833333333331,400,74C564.5833333333333,11.291666666666671,716.6666666666666,-214.95833333333331,800,-291" transform="matrix(1,0,0,1,0,216)"></path><path d="M10,10C91.25,23.333333333333332,235.41666666666669,136.70833333333331,400,74C564.5833333333333,11.291666666666671,716.6666666666666,-214.95833333333331,800,-291" transform="matrix(1,0,0,1,0,198)"></path><path d="M10,10C91.25,23.333333333333332,235.41666666666669,136.70833333333331,400,74C564.5833333333333,11.291666666666671,716.6666666666666,-214.95833333333331,800,-291" transform="matrix(1,0,0,1,0,180)"></path><path d="M10,10C91.25,23.333333333333332,235.41666666666669,136.70833333333331,400,74C564.5833333333333,11.291666666666671,716.6666666666666,-214.95833333333331,800,-291" transform="matrix(1,0,0,1,0,162)"></path><path d="M10,10C91.25,23.333333333333332,235.41666666666669,136.70833333333331,400,74C564.5833333333333,11.291666666666671,716.6666666666666,-214.95833333333331,800,-291" transform="matrix(1,0,0,1,0,144)"></path><path d="M10,10C91.25,23.333333333333332,235.41666666666669,136.70833333333331,400,74C564.5833333333333,11.291666666666671,716.6666666666666,-214.95833333333331,800,-291" transform="matrix(1,0,0,1,0,126)"></path><path d="M10,10C91.25,23.333333333333332,235.41666666666669,136.70833333333331,400,74C564.5833333333333,11.291666666666671,716.6666666666666,-214.95833333333331,800,-291" transform="matrix(1,0,0,1,0,108)"></path><path d="M10,10C91.25,23.333333333333332,235.41666666666669,136.70833333333331,400,74C564.5833333333333,11.291666666666671,716.6666666666666,-214.95833333333331,800,-291" transform="matrix(1,0,0,1,0,90)"></path><path d="M10,10C91.25,23.333333333333332,235.41666666666669,136.70833333333331,400,74C564.5833333333333,11.291666666666671,716.6666666666666,-214.95833333333331,800,-291" transform="matrix(1,0,0,1,0,72)"></path><path d="M10,10C91.25,23.333333333333332,235.41666666666669,136.70833333333331,400,74C564.5833333333333,11.291666666666671,716.6666666666666,-214.95833333333331,800,-291" transform="matrix(1,0,0,1,0,54)"></path><path d="M10,10C91.25,23.333333333333332,235.41666666666669,136.70833333333331,400,74C564.5833333333333,11.291666666666671,716.6666666666666,-214.95833333333331,800,-291" transform="matrix(1,0,0,1,0,36)"></path><path d="M10,10C91.25,23.333333333333332,235.41666666666669,136.70833333333331,400,74C564.5833333333333,11.291666666666671,716.6666666666666,-214.95833333333331,800,-291" transform="matrix(1,0,0,1,0,18)"></path></g></svg>