<svg xmlns="http://www.w3.org/2000/svg" version="1.1" xmlns:xlink="http://www.w3.org/1999/xlink" xmlns:svgjs="http://svgjs.dev/svgjs" viewBox="0 0 800 800" opacity="1"><defs><linearGradient gradientTransform="rotate(270)" x1="50%" y1="0%" x2="50%" y2="100%" id="sssquiggly-grad"><stop stop-color="hsla(206, 50%, 22%, 0.14)" stop-opacity="1" offset="0%"></stop><stop stop-color="#1c3c5407" stop-opacity="1" offset="100%"></stop></linearGradient></defs><g stroke-width="1" stroke="url(#sssquiggly-grad)" fill="none" stroke-linecap="round" transform="matrix(1,0,0,1,-5,309.2422332763672)"><path d="M10,10C91.25,42.083333333333336,235.41666666666669,196.70833333333334,400,164C564.5833333333333,131.29166666666666,716.6666666666666,-82.20833333333333,800,-147"></path><path d="M10,10C91.25,42.083333333333336,235.41666666666669,196.70833333333334,400,164C564.5833333333333,131.29166666666666,716.6666666666666,-82.20833333333333,800,-147" transform="matrix(1,0,0,1,0,160)"></path><path d="M10,10C91.25,42.083333333333336,235.41666666666669,196.70833333333334,400,164C564.5833333333333,131.29166666666666,716.6666666666666,-82.20833333333333,800,-147" transform="matrix(1,0,0,1,0,150)"></path><path d="M10,10C91.25,42.083333333333336,235.41666666666669,196.70833333333334,400,164C564.5833333333333,131.29166666666666,716.6666666666666,-82.20833333333333,800,-147" transform="matrix(1,0,0,1,0,140)"></path><path d="M10,10C91.25,42.083333333333336,235.41666666666669,196.70833333333334,400,164C564.5833333333333,131.29166666666666,716.6666666666666,-82.20833333333333,800,-147" transform="matrix(1,0,0,1,0,130)"></path><path d="M10,10C91.25,42.083333333333336,235.41666666666669,196.70833333333334,400,164C564.5833333333333,131.29166666666666,716.6666666666666,-82.20833333333333,800,-147" transform="matrix(1,0,0,1,0,120)"></path><path d="M10,10C91.25,42.083333333333336,235.41666666666669,196.70833333333334,400,164C564.5833333333333,131.29166666666666,716.6666666666666,-82.20833333333333,800,-147" transform="matrix(1,0,0,1,0,110)"></path><path d="M10,10C91.25,42.083333333333336,235.41666666666669,196.70833333333334,400,164C564.5833333333333,131.29166666666666,716.6666666666666,-82.20833333333333,800,-147" transform="matrix(1,0,0,1,0,100)"></path><path d="M10,10C91.25,42.083333333333336,235.41666666666669,196.70833333333334,400,164C564.5833333333333,131.29166666666666,716.6666666666666,-82.20833333333333,800,-147" transform="matrix(1,0,0,1,0,90)"></path><path d="M10,10C91.25,42.083333333333336,235.41666666666669,196.70833333333334,400,164C564.5833333333333,131.29166666666666,716.6666666666666,-82.20833333333333,800,-147" transform="matrix(1,0,0,1,0,80)"></path><path d="M10,10C91.25,42.083333333333336,235.41666666666669,196.70833333333334,400,164C564.5833333333333,131.29166666666666,716.6666666666666,-82.20833333333333,800,-147" transform="matrix(1,0,0,1,0,70)"></path><path d="M10,10C91.25,42.083333333333336,235.41666666666669,196.70833333333334,400,164C564.5833333333333,131.29166666666666,716.6666666666666,-82.20833333333333,800,-147" transform="matrix(1,0,0,1,0,60)"></path><path d="M10,10C91.25,42.083333333333336,235.41666666666669,196.70833333333334,400,164C564.5833333333333,131.29166666666666,716.6666666666666,-82.20833333333333,800,-147" transform="matrix(1,0,0,1,0,50)"></path><path d="M10,10C91.25,42.083333333333336,235.41666666666669,196.70833333333334,400,164C564.5833333333333,131.29166666666666,716.6666666666666,-82.20833333333333,800,-147" transform="matrix(1,0,0,1,0,40)"></path><path d="M10,10C91.25,42.083333333333336,235.41666666666669,196.70833333333334,400,164C564.5833333333333,131.29166666666666,716.6666666666666,-82.20833333333333,800,-147" transform="matrix(1,0,0,1,0,30)"></path><path d="M10,10C91.25,42.083333333333336,235.41666666666669,196.70833333333334,400,164C564.5833333333333,131.29166666666666,716.6666666666666,-82.20833333333333,800,-147" transform="matrix(1,0,0,1,0,20)"></path><path d="M10,10C91.25,42.083333333333336,235.41666666666669,196.70833333333334,400,164C564.5833333333333,131.29166666666666,716.6666666666666,-82.20833333333333,800,-147" transform="matrix(1,0,0,1,0,10)"></path></g></svg>