<svg xmlns="http://www.w3.org/2000/svg" version="1.1" xmlns:xlink="http://www.w3.org/1999/xlink" xmlns:svgjs="http://svgjs.dev/svgjs" viewBox="0 0 800 800" opacity="1"><defs><linearGradient gradientTransform="rotate(270)" x1="50%" y1="0%" x2="50%" y2="100%" id="sssquiggly-grad"><stop stop-color="hsla(206, 50%, 22%, 0.14)" stop-opacity="1" offset="0%"></stop><stop stop-color="#1c3c5407" stop-opacity="1" offset="100%"></stop></linearGradient></defs><g stroke-width="1" stroke="url(#sssquiggly-grad)" fill="none" stroke-linecap="round" transform="matrix(1,0,0,1,-5,226.47828674316406)"><path d="M10,10C63.47222222222222,23.125,157.6388888888889,93.41666666666666,266.6666666666667,73C375.69444444444446,52.583333333333336,422.2222222222223,-140.29166666666669,533.3333333333334,-88C644.4444444444445,-35.70833333333333,744.4444444444445,238.16666666666666,800,324"></path><path d="M10,10C63.47222222222222,23.125,157.6388888888889,93.41666666666666,266.6666666666667,73C375.69444444444446,52.583333333333336,422.2222222222223,-140.29166666666669,533.3333333333334,-88C644.4444444444445,-35.70833333333333,744.4444444444445,238.16666666666666,800,324" transform="matrix(1,0,0,1,0,120)"></path><path d="M10,10C63.47222222222222,23.125,157.6388888888889,93.41666666666666,266.6666666666667,73C375.69444444444446,52.583333333333336,422.2222222222223,-140.29166666666669,533.3333333333334,-88C644.4444444444445,-35.70833333333333,744.4444444444445,238.16666666666666,800,324" transform="matrix(1,0,0,1,0,110)"></path><path d="M10,10C63.47222222222222,23.125,157.6388888888889,93.41666666666666,266.6666666666667,73C375.69444444444446,52.583333333333336,422.2222222222223,-140.29166666666669,533.3333333333334,-88C644.4444444444445,-35.70833333333333,744.4444444444445,238.16666666666666,800,324" transform="matrix(1,0,0,1,0,100)"></path><path d="M10,10C63.47222222222222,23.125,157.6388888888889,93.41666666666666,266.6666666666667,73C375.69444444444446,52.583333333333336,422.2222222222223,-140.29166666666669,533.3333333333334,-88C644.4444444444445,-35.70833333333333,744.4444444444445,238.16666666666666,800,324" transform="matrix(1,0,0,1,0,90)"></path><path d="M10,10C63.47222222222222,23.125,157.6388888888889,93.41666666666666,266.6666666666667,73C375.69444444444446,52.583333333333336,422.2222222222223,-140.29166666666669,533.3333333333334,-88C644.4444444444445,-35.70833333333333,744.4444444444445,238.16666666666666,800,324" transform="matrix(1,0,0,1,0,80)"></path><path d="M10,10C63.47222222222222,23.125,157.6388888888889,93.41666666666666,266.6666666666667,73C375.69444444444446,52.583333333333336,422.2222222222223,-140.29166666666669,533.3333333333334,-88C644.4444444444445,-35.70833333333333,744.4444444444445,238.16666666666666,800,324" transform="matrix(1,0,0,1,0,70)"></path><path d="M10,10C63.47222222222222,23.125,157.6388888888889,93.41666666666666,266.6666666666667,73C375.69444444444446,52.583333333333336,422.2222222222223,-140.29166666666669,533.3333333333334,-88C644.4444444444445,-35.70833333333333,744.4444444444445,238.16666666666666,800,324" transform="matrix(1,0,0,1,0,60)"></path><path d="M10,10C63.47222222222222,23.125,157.6388888888889,93.41666666666666,266.6666666666667,73C375.69444444444446,52.583333333333336,422.2222222222223,-140.29166666666669,533.3333333333334,-88C644.4444444444445,-35.70833333333333,744.4444444444445,238.16666666666666,800,324" transform="matrix(1,0,0,1,0,50)"></path><path d="M10,10C63.47222222222222,23.125,157.6388888888889,93.41666666666666,266.6666666666667,73C375.69444444444446,52.583333333333336,422.2222222222223,-140.29166666666669,533.3333333333334,-88C644.4444444444445,-35.70833333333333,744.4444444444445,238.16666666666666,800,324" transform="matrix(1,0,0,1,0,40)"></path><path d="M10,10C63.47222222222222,23.125,157.6388888888889,93.41666666666666,266.6666666666667,73C375.69444444444446,52.583333333333336,422.2222222222223,-140.29166666666669,533.3333333333334,-88C644.4444444444445,-35.70833333333333,744.4444444444445,238.16666666666666,800,324" transform="matrix(1,0,0,1,0,30)"></path><path d="M10,10C63.47222222222222,23.125,157.6388888888889,93.41666666666666,266.6666666666667,73C375.69444444444446,52.583333333333336,422.2222222222223,-140.29166666666669,533.3333333333334,-88C644.4444444444445,-35.70833333333333,744.4444444444445,238.16666666666666,800,324" transform="matrix(1,0,0,1,0,20)"></path><path d="M10,10C63.47222222222222,23.125,157.6388888888889,93.41666666666666,266.6666666666667,73C375.69444444444446,52.583333333333336,422.2222222222223,-140.29166666666669,533.3333333333334,-88C644.4444444444445,-35.70833333333333,744.4444444444445,238.16666666666666,800,324" transform="matrix(1,0,0,1,0,10)"></path></g></svg>